<?xml version="1.0" standalone="no"?><svg xmlns="http://www.w3.org/2000/svg" viewBox="0 0 1440 320"><path fill="#dc2626" fill-opacity="1" d="M0,32L26.7,64C53.3,96,107,160,160,165.3C213.3,171,267,117,320,122.7C373.3,128,427,192,480,224C533.3,256,587,256,640,266.7C693.3,277,747,299,800,272C853.3,245,907,171,960,154.7C1013.3,139,1067,181,1120,170.7C1173.3,160,1227,96,1280,64C1333.3,32,1387,32,1413,32L1440,32L1440,320L1413.3,320C1386.7,320,1333,320,1280,320C1226.7,320,1173,320,1120,320C1066.7,320,1013,320,960,320C906.7,320,853,320,800,320C746.7,320,693,320,640,320C586.7,320,533,320,480,320C426.7,320,373,320,320,320C266.7,320,213,320,160,320C106.7,320,53,320,27,320L0,320Z"></path></svg>